<?xml version="1.0" encoding="utf-8"?>
<!-- Svg Vector Icons : http://www.onlinewebfonts.com/icon -->
<!DOCTYPE svg PUBLIC "-//W3C//DTD SVG 1.1//EN" "http://www.w3.org/Graphics/SVG/1.1/DTD/svg11.dtd">
<svg version="1.1" xmlns="http://www.w3.org/2000/svg" xmlns:xlink="http://www.w3.org/1999/xlink" x="0px" y="0px" viewBox="0 0 1000 1000" enable-background="new 0 0 1000 1000" xml:space="preserve">
<metadata> Svg Vector Icons : http://www.onlinewebfonts.com/icon </metadata>
<g><g transform="translate(0.000000,511.000000) scale(0.100000,-0.100000)">

	<path d="M4422.5,4985.2C2936.7,4796.5,1615.8,3952.7,839.3,2701.2C45.5,1423.7-119.4-177,394.7-1573.9c629-1704.8,2149.5-2928.2,3956.2-3179.8c368.7-52.1,973.9-47.7,1355.6,8.7c1438,212.6,2693.9,1030.3,3457.4,2253.6c340.5,544.4,566.1,1138.7,685.4,1804.6c49.9,277.6,67.2,1008.6,32.5,1327.4c-201.7,1832.8-1418.5,3403.1-3145,4062.5c-266.8,101.9-622.5,197.4-943.5,251.6C5448.4,5013.4,4765.2,5028.5,4422.5,4985.2z" style="fill: white;"/>

	<path d="M5849.7,1855.3L4194.8,929.1L3275.1-719.3c-505.4-906.6-919.7-1670.1-919.7-1698.3c0-60.7,36.9-134.5,84.6-171.4c91.1-69.4,136.7-47.7,1795.9,885c891.4,503.2,1633.2,924,1648.4,937c23.9,23.9,1733,3038.8,1830.6,3229.6c21.7,45.5,41.2,106.3,41.2,136.6c0,78.1-108.4,184.4-188.7,184.4C7528.5,2783.6,6942.9,2469.1,5849.7,1855.3z M5413.7-584.8c-47.7-36.9-2307.8-1294.9-2314.3-1288.4c-4.3,6.5,282,533.6,637.7,1171.2l646.4,1162.6L4904-57.7C5188.2-344.1,5418.1-580.5,5413.7-584.8z" style="fill: #c21010;" transform="scale(1, 0.8) rotate(45, 5000, 0)"/>

	<path d="M4667.6,3898.5c-30.4-28.2-34.7-108.5-34.7-540.1s4.3-511.9,34.7-540.1c36.9-39,91.1-43.4,136.6-15.2c23.9,15.2,30.4,93.3,30.4,357.9c2.2,186.5,8.7,338.4,17.4,338.4c6.5,0,119.3-154,249.4-340.5c128-188.7,242.9-349.2,255.9-357.9c43.4-30.4,119.3-17.3,143.1,23.9c13,26,21.7,238.6,21.7,542.3c0,422.9-4.3,503.2-34.7,531.4c-34.7,36.9-71.6,43.4-125.8,21.7c-30.4-10.8-34.7-65.1-34.7-368.7c0-195.2-6.5-355.7-15.2-355.7c-10.8,0-119.3,154-245.1,340.5c-125.8,186.5-240.7,351.4-255.9,366.6C4771.7,3944,4708.8,3941.9,4667.6,3898.5z" transform="translate(-50, 1000)"/>

<path d="M1175.5,601.6c-19.5-17.3-34.7-39-34.7-47.7c0-65.1,219.1-1010.7,238.6-1034.6c32.5-39,138.8-43.4,169.2-4.3c13,15.2,65.1,184.4,115,379.6c49.9,193.1,97.6,351.4,106.3,351.4c6.5,0,56.4-158.3,106.3-351.4c52.1-195.2,104.1-366.5,115-379.6c26-32.5,121.5-36.9,164.8-10.8c23.9,15.2,242.9,967.4,242.9,1056.3c0,49.9-93.3,86.8-145.3,58.6c-34.7-19.5-52.1-84.6-101.9-388.3C2119,31.2,2086.5-153.2,2080-177c-8.7-26-52.1,112.8-117.1,366.6c-56.4,225.6-115,418.6-132.3,427.3c-45.5,30.4-95.4,21.7-130.1-17.4c-17.3-21.7-75.9-212.6-128-423c-52.1-210.4-97.6-381.7-101.9-377.4c-2.2,4.3-34.7,182.2-71.6,394.7C1362.1,406.4,1323,593,1310,608.1C1279.6,647.2,1216.7,642.8,1175.5,601.6z"
	transform="translate(-1000, -50)"/>

<path d="M8127.1,584.3c-17.3-19.5-23.8-184.4-19.5-546.6l6.5-518.4l312.3-6.5c312.3-6.5,370.9,6.5,370.9,73.8c0,73.7-65.1,95.4-284.1,95.4h-214.7v138.8v136.6l164.8,10.8c160.5,10.8,201.7,30.4,203.9,97.6c0,62.9-69.4,93.3-219.1,93.3h-149.7v141v141h225.6c253.8,0,299.3,21.7,255.9,119.3c-23.9,54.2-26,54.2-327.5,54.2C8224.7,614.6,8146.7,608.1,8127.1,584.3z" transform="translate(1000, -50)"/>

<path d="M4873.7-2699.6c-115-56.4-162.7-138.8-162.7-271.1c0-154,47.7-214.7,247.3-312.3c201.7-95.4,260.3-147.5,260.3-227.7c0-136.6-193-164.8-364.4-49.9c-71.6,47.7-95.4,54.2-132.3,32.5c-164.8-86.8,156.2-308,394.7-273.3c201.7,30.4,310.2,156.2,292.8,342.7c-15.2,138.8-69.4,195.2-295,303.7c-210.4,99.8-251.6,160.5-182.2,253.8c58.6,80.2,171.3,84.6,292.8,13c104.1-58.6,156.2-54.2,180,15.2c15.2,52-58.6,141-158.3,182.2C5149.1-2649.7,4962.6-2651.8,4873.7-2699.6z" transform="translate(-50, -1000)"/>

</g></g>
</svg>
