<?xml version="1.0" encoding="iso-8859-1"?>
<!-- Generator: Adobe Illustrator 19.0.0, SVG Export Plug-In . SVG Version: 6.00 Build 0)  -->
<svg version="1.1" id="Capa_1" xmlns="http://www.w3.org/2000/svg" xmlns:xlink="http://www.w3.org/1999/xlink" x="0px" y="0px"
	 viewBox="0 0 512 512" style="enable-background:new 0 0 512 512;" xml:space="preserve">
<path style="fill:#0072A2;" d="M34.25,476.835V6.651C34.25,2.978,37.228,0,40.901,0h430.198c3.673,0,6.651,2.978,6.651,6.651
	v470.183L34.25,476.835L34.25,476.835z"/>
<path style="fill:#006289;" d="M471.099,0h-34.167c3.673,0,6.651,2.978,6.651,6.651v470.183h34.167V6.651
	C477.75,2.978,474.772,0,471.099,0z"/>
<path style="fill:#843d17;" d="M444.851,476.835H67.149V41.568c0-4.788,3.881-8.669,8.669-8.669h360.363
	c4.788,0,8.669,3.881,8.669,8.669v435.267H444.851z"/>
<path style="fill:#db6b2e;" d="M436.182,32.898h-34.167c4.788,0,8.669,3.881,8.669,8.669v435.267h34.167V41.568
	C444.851,36.78,440.969,32.898,436.182,32.898z"/>
<g>
	<path style="fill:#a0cdf9;" d="M96.154,232.459V68.814c0-3.817,3.094-6.911,6.911-6.911h131.028c3.817,0,6.911,3.094,6.911,6.911
		v163.645c0,3.817-3.094,6.911-6.911,6.911H103.065C99.248,239.371,96.154,236.276,96.154,232.459z"/>
	<path style="fill:#a0cdf9;" d="M96.154,441.92V278.274c0-3.817,3.094-6.911,6.911-6.911h131.028c3.817,0,6.911,3.094,6.911,6.911
		V441.92c0,3.817-3.094,6.911-6.911,6.911H103.065C99.248,448.831,96.154,445.737,96.154,441.92z"/>
	<path style="fill:#a0cdf9;" d="M270.996,232.459V68.814c0-3.817,3.094-6.911,6.911-6.911h131.028c3.817,0,6.911,3.094,6.911,6.911
		v163.645c0,3.817-3.094,6.911-6.911,6.911H277.907C274.09,239.371,270.996,236.276,270.996,232.459z"/>
</g>
<path style="fill:#E4E4E4;" d="M408.935,61.903h-34.167c3.817,0,6.911,3.094,6.911,6.911v163.645c0,3.817-3.094,6.911-6.911,6.911
	h34.167c3.817,0,6.911-3.094,6.911-6.911V68.814C415.846,64.997,412.752,61.903,408.935,61.903z"/>
<path style="fill:#a0cdf9;" d="M270.996,441.92V278.274c0-3.817,3.094-6.911,6.911-6.911h131.028c3.817,0,6.911,3.094,6.911,6.911
	V441.92c0,3.817-3.094,6.911-6.911,6.911H277.907C274.09,448.831,270.996,445.737,270.996,441.92z"/>
<g>
	<path style="fill:#E4E4E4;" d="M408.935,271.363h-34.167c3.817,0,6.911,3.094,6.911,6.911V441.92c0,3.817-3.094,6.911-6.911,6.911
		h34.167c3.817,0,6.911-3.094,6.911-6.911V278.274C415.846,274.457,412.752,271.363,408.935,271.363z"/>
	<path style="fill:#E4E4E4;" d="M234.093,61.903h-34.167c3.817,0,6.911,3.094,6.911,6.911v163.645c0,3.817-3.094,6.911-6.911,6.911
		h34.167c3.817,0,6.911-3.094,6.911-6.911V68.814C241.004,64.997,237.91,61.903,234.093,61.903z"/>
	<path style="fill:#E4E4E4;" d="M234.093,271.363h-34.167c3.817,0,6.911,3.094,6.911,6.911V441.92c0,3.817-3.094,6.911-6.911,6.911
		h34.167c3.817,0,6.911-3.094,6.911-6.911V278.274C241.004,274.457,237.91,271.363,234.093,271.363z"/>
</g>
<path style="fill:#D96B37;" d="M500.481,512H11.519c-4.16,0-7.532-3.372-7.532-7.532v-23.873c0-4.16,3.372-7.532,7.532-7.532H500.48
	c4.16,0,7.532,3.372,7.532,7.532v23.873C508.013,508.628,504.641,512,500.481,512z"/>
<path style="fill:#B14418;" d="M500.481,473.063h-26.635V512h26.635c4.16,0,7.532-3.372,7.532-7.532v-23.873
	C508.013,476.435,504.641,473.063,500.481,473.063z"/>
</svg>
