<svg height="512pt" viewBox="0 -50 512 512" width="512pt" xmlns="http://www.w3.org/2000/svg">
<path d="m7.601562 7.605469h496.792969v397.433593h-496.792969zm0 0" fill="#ff8040"/>
<path d="m504.390625 261.910156v31.9375h-120.140625c-8.8125 0-15.96875 7.148438-15.96875 15.96875v79.253906c0 8.820313 7.15625 15.96875 15.96875 15.96875h-63.863281c8.808593 0 15.96875-7.148437 15.96875-15.96875v-79.253906c0-8.820312-7.160157-15.96875-15.96875-15.96875h-128.773438c-8.808593 0-15.96875 7.148438-15.96875 15.96875v79.253906c0 8.820313 7.160157 15.96875 15.96875 15.96875h-63.863281c8.8125 0 15.96875-7.148437 15.96875-15.96875v-79.253906c0-8.820312-7.15625-15.96875-15.96875-15.96875h-120.152344v-31.9375h23.835938c8.8125 0 15.96875-7.148437 15.96875-15.96875v-79.242187c0-8.820313-7.15625-15.96875-15.96875-15.96875h-23.835938v-31.9375h120.152344c8.8125 0 15.96875-7.148438 15.96875-15.96875v-79.25c0-8.824219-7.15625-15.96875-15.96875-15.96875h63.863281c-8.808593 0-15.96875 7.144531-15.96875 15.96875v79.25c0 8.820312 7.160157 15.96875 15.96875 15.96875h128.773438c8.808593 0 15.96875-7.148438 15.96875-15.96875v-79.25c0-8.824219-7.160157-15.96875-15.96875-15.96875h63.863281c-8.8125 0-15.96875 7.144531-15.96875 15.96875v79.25c0 8.820312 7.15625 15.96875 15.96875 15.96875h120.140625v31.9375h-23.824219c-8.8125 0-15.96875 7.148437-15.96875 15.96875v79.242187c0 8.820313 7.15625 15.96875 15.96875 15.96875zm-71.71875-15.96875v-79.242187c0-8.820313-7.160156-15.96875-15.96875-15.96875h-128.773437c-8.808594 0-15.964844 7.148437-15.964844 15.96875v79.242187c0 8.820313 7.15625 15.96875 15.964844 15.96875h128.773437c8.808594 0 15.96875-7.148437 15.96875-15.96875zm-192.636719 0v-79.242187c0-8.820313-7.15625-15.96875-15.964844-15.96875h-128.773437c-8.808594 0-15.96875 7.148437-15.96875 15.96875v79.242187c0 8.820313 7.160156 15.96875 15.96875 15.96875h128.773437c8.808594 0 15.964844-7.148437 15.964844-15.96875zm0 0" fill="#e4e4ef"/><path d="m504.394531 412.640625h-120.140625c-13 0-23.574218-10.574219-23.574218-23.570313v-79.253906c0-13 10.574218-23.574218 23.574218-23.574218h120.140625c4.203125 0 7.605469 3.40625 7.605469 7.605468v111.191406c0 4.199219-3.402344 7.601563-7.605469 7.601563zm-77.050781-15.207031h69.449219v-95.980469h-112.539063c-4.613281 0-8.363281 3.75-8.363281 8.363281v79.253906c0 4.609376 3.75 8.363282 8.363281 8.363282zm-106.964844 15.207031h-128.765625c-12.996093 0-23.570312-10.574219-23.570312-23.570313v-79.253906c0-12.996094 10.574219-23.570312 23.570312-23.570312h128.765625c12.996094 0 23.570313 10.574218 23.570313 23.570312v79.253906c0 12.996094-10.574219 23.570313-23.570313 23.570313zm-128.765625-111.1875c-4.609375 0-8.363281 3.753906-8.363281 8.363281v79.253906c0 4.609376 3.753906 8.363282 8.363281 8.363282h128.765625c4.609375 0 8.363282-3.753906 8.363282-8.363282v-79.253906c0-4.613281-3.753907-8.363281-8.363282-8.363281zm-63.867187 111.1875h-120.140625c-4.203125 0-7.605469-3.402344-7.605469-7.601563v-111.191406c0-4.199218 3.402344-7.605468 7.605469-7.605468h56.773437c4.203125 0 7.605469 3.40625 7.605469 7.605468 0 4.199219-3.402344 7.605469-7.605469 7.605469h-49.171875v95.980469h112.539063c4.613281 0 8.363281-3.753906 8.363281-8.363282v-79.253906c0-4.613281-3.75-8.363281-8.363281-8.363281h-32.949219c-4.199219 0-7.601563-3.40625-7.601563-7.605469 0-4.199218 3.402344-7.605468 7.601563-7.605468h32.949219c13 0 23.574218 10.574218 23.574218 23.574218v79.253906c0 12.996094-10.574218 23.570313-23.574218 23.570313zm288.949218-143.121094h-128.765624c-12.996094 0-23.570313-10.574219-23.570313-23.570312v-79.253907c0-12.996093 10.574219-23.570312 23.570313-23.570312h128.765624c12.996094 0 23.570313 10.574219 23.570313 23.570312v79.253907c0 12.996093-10.574219 23.570312-23.570313 23.570312zm-128.765624-111.1875c-4.609376 0-8.363282 3.75-8.363282 8.363281v79.25c0 4.613282 3.753906 8.363282 8.363282 8.363282h128.765624c4.613282 0 8.363282-3.75 8.363282-8.363282v-79.25c0-4.613281-3.75-8.363281-8.363282-8.363281zm-63.867188 111.1875h-128.765625c-12.996094 0-23.570313-10.574219-23.570313-23.570312v-79.253907c0-12.996093 10.574219-23.570312 23.570313-23.570312h128.765625c12.996094 0 23.570312 10.574219 23.570312 23.570312v79.253907c0 12.996093-10.574218 23.570312-23.570312 23.570312zm-128.765625-111.1875c-4.609375 0-8.363281 3.75-8.363281 8.363281v79.25c0 4.613282 3.753906 8.363282 8.363281 8.363282h128.765625c4.609375 0 8.363281-3.75 8.363281-8.363282v-79.25c0-4.613281-3.753906-8.363281-8.363281-8.363281zm409.097656 111.183594h-23.824219c-12.996093 0-23.574218-10.574219-23.574218-23.574219v-79.242187c0-12.996094 10.578125-23.574219 23.574218-23.574219h23.824219c4.203125 0 7.605469 3.40625 7.605469 7.605469v111.179687c0 4.199219-3.402344 7.605469-7.605469 7.605469zm-23.824219-111.179687c-4.613281 0-8.363281 3.75-8.363281 8.363281v79.242187c0 4.613282 3.75 8.367188 8.363281 8.367188h16.222657v-95.972656zm-449.140624 111.179687h-23.824219c-4.203125 0-7.605469-3.40625-7.605469-7.605469v-111.179687c0-4.199219 3.402344-7.605469 7.605469-7.605469h23.824219c12.996093 0 23.574218 10.578125 23.574218 23.574219v79.242187c0 13-10.578125 23.574219-23.574218 23.574219zm-16.222657-15.207031h16.222657c4.613281 0 8.363281-3.753906 8.363281-8.367188v-79.242187c0-4.613281-3.75-8.363281-8.363281-8.363281h-16.222657zm489.1875-127.910156h-49.675781c-4.199219 0-7.605469-3.40625-7.605469-7.605469s3.40625-7.601563 7.605469-7.601563h42.074219v-95.984375h-112.539063c-4.613281 0-8.363281 3.753907-8.363281 8.367188v79.25c0 4.613281 3.75 8.367187 8.363281 8.367187h40.046875c4.199219 0 7.605469 3.402344 7.605469 7.601563s-3.40625 7.605469-7.605469 7.605469h-40.046875c-13 0-23.574218-10.574219-23.574218-23.574219v-79.25c0-13 10.574218-23.574219 23.574218-23.574219h120.140625c4.203125 0 7.605469 3.40625 7.605469 7.605469v111.1875c0 4.199219-3.402344 7.605469-7.605469 7.605469zm-376.648437 0h-120.140625c-4.203125 0-7.605469-3.40625-7.605469-7.605469v-111.1875c0-4.199219 3.402344-7.605469 7.605469-7.605469h120.140625c13 0 23.574218 10.574219 23.574218 23.574219v79.25c0 13-10.574218 23.574219-23.574218 23.574219zm-112.539063-15.207032h112.539063c4.613281 0 8.363281-3.753906 8.363281-8.367187v-79.25c0-4.613281-3.75-8.367188-8.363281-8.367188h-112.539063zm305.171875 15.203125h-128.765625c-12.996093 0-23.570312-10.570312-23.570312-23.570312v-79.253907c0-12.996093 10.574219-23.570312 23.570312-23.570312h128.765625c12.996094 0 23.570313 10.574219 23.570313 23.570312v79.253907c0 12.996093-10.574219 23.570312-23.570313 23.570312zm-128.765625-111.1875c-4.609375 0-8.363281 3.753907-8.363281 8.363281v79.253907c0 4.613281 3.753906 8.363281 8.363281 8.363281h128.765625c4.609375 0 8.363282-3.75 8.363282-8.363281v-79.253907c0-4.609374-3.753907-8.363281-8.363282-8.363281zm0 0"/></svg>