<?xml version="1.0" encoding="iso-8859-1"?>
<!-- Generator: Adobe Illustrator 18.0.0, SVG Export Plug-In . SVG Version: 6.00 Build 0)  -->
<!DOCTYPE svg PUBLIC "-//W3C//DTD SVG 1.1//EN" "http://www.w3.org/Graphics/SVG/1.1/DTD/svg11.dtd">
<svg xmlns="http://www.w3.org/2000/svg" xmlns:xlink="http://www.w3.org/1999/xlink" version="1.1" id="Capa_1" x="0px" y="0px" viewBox="0 0 335.483 335.483" style="enable-background:new 0 0 335.483 335.483;" xml:space="preserve" width="512px" height="512px">
<g>
	<path d="M47.677,296.901h100.648V26.582H47.677V296.901z M54.677,141.048l86.648-86.647v78.421l-0.132-0.132l-86.516,86.516   V141.048z M54.677,289.901v-60.796l86.648-86.648v147.445H54.677z M141.325,44.766l-0.132-0.132l-86.516,86.515v-19.543   L132.7,33.582h8.625V44.766z M122.801,33.582l-68.124,68.125V33.582H122.801z" fill="#8c8c8c"/>
	<path d="M306.985,316.484V0H28.499v316.484H14.9v18.999h305.684v-18.999H306.985z M299.985,316.484h-37.404l2.587-19.583h22.634   V26.581h-100.64v270.32h35.474l2.587,19.583h-53.981V7h128.743V316.484z M194.287,112.626l79.044-79.045h7.471v12.083l-86.64,86.64   v-19.803L194.287,112.626z M194.162,102.853V33.581h69.271L194.162,102.853z M280.802,133.72l-86.64,86.641v-78.416l0.129,0.129   l86.511-86.511V133.72z M194.162,230.001l0.129,0.129l86.511-86.512v146.283h-14.709l3.303-25h-21.493v-4.44l7.2-4l-3.4-6.119   l-3.8,2.111v-5.004c6.168-1.566,10.75-7.149,10.75-13.797v-25.745l-14.25,11.931l-14.25-11.931v25.745   c0,6.648,4.582,12.231,10.75,13.797v17.453h-22.493l3.303,25h-27.55V230.001z M244.402,240.901c-3.998,0-7.25-3.252-7.25-7.25   v-10.755l7.25,6.069l7.25-6.069v10.755C251.652,237.649,248.4,240.901,244.402,240.901z M261.409,271.901l-5.813,44h-23.389   l-5.813-44H261.409z M35.499,7h128.743v309.484H35.499V7z M313.584,328.483H21.9v-4.999h291.684V328.483z" fill="#8c8c8c"/>
	<rect x="152.642" y="176.734" width="7" height="29.334" fill="#8c8c8c"/>
	<rect x="175.842" y="176.734" width="7" height="29.334" fill="#8c8c8c"/>
</g>
<g>
</g>
<g>
</g>
<g>
</g>
<g>
</g>
<g>
</g>
<g>
</g>
<g>
</g>
<g>
</g>
<g>
</g>
<g>
</g>
<g>
</g>
<g>
</g>
<g>
</g>
<g>
</g>
<g>
</g>
</svg>
